<svg width="20" height="20" viewBox="0 0 20 20" fill="none" xmlns="http://www.w3.org/2000/svg">
<path d="M9.99915 6.14746C8.97718 6.14746 7.99707 6.55344 7.27443 7.27608C6.55179 7.99872 6.14581 8.97883 6.14581 10.0008C6.14581 11.0228 6.55179 12.0029 7.27443 12.7255C7.99707 13.4482 8.97718 13.8541 9.99915 13.8541C11.0211 13.8541 12.0013 13.4482 12.7239 12.7255C13.4465 12.0029 13.8525 11.0228 13.8525 10.0008C13.8525 8.97883 13.4465 7.99872 12.7239 7.27608C12.0013 6.55344 11.0211 6.14746 9.99915 6.14746ZM9.99915 12.5033C9.33522 12.5033 8.69849 12.2396 8.22902 11.7701C7.75956 11.3006 7.49581 10.6639 7.49581 9.99996C7.49581 9.33604 7.75956 8.6993 8.22902 8.22984C8.69849 7.76037 9.33522 7.49663 9.99915 7.49663C10.6631 7.49663 11.2998 7.76037 11.7693 8.22984C12.2388 8.6993 12.5025 9.33604 12.5025 9.99996C12.5025 10.6639 12.2388 11.3006 11.7693 11.7701C11.2998 12.2396 10.6631 12.5033 9.99915 12.5033Z" fill="white"/>
<path d="M14.005 6.90421C14.5011 6.90421 14.9033 6.50201 14.9033 6.00588C14.9033 5.50974 14.5011 5.10754 14.005 5.10754C13.5089 5.10754 13.1067 5.50974 13.1067 6.00588C13.1067 6.50201 13.5089 6.90421 14.005 6.90421Z" fill="white"/>
<path d="M17.1108 5.09248C16.9179 4.5943 16.6231 4.14189 16.2453 3.7642C15.8675 3.38651 15.4149 3.09188 14.9167 2.89915C14.3336 2.68028 13.7177 2.56193 13.095 2.54915C12.2925 2.51415 12.0383 2.50415 10.0033 2.50415C7.96838 2.50415 7.70754 2.50415 6.91171 2.54915C6.28953 2.56128 5.67401 2.67965 5.09171 2.89915C4.59332 3.09165 4.14068 3.38621 3.76282 3.76392C3.38496 4.14164 3.09023 4.59417 2.89754 5.09248C2.67863 5.67549 2.56055 6.29151 2.54838 6.91415C2.51254 7.71582 2.50171 7.96998 2.50171 10.0058C2.50171 12.0408 2.50171 12.3 2.54838 13.0975C2.56088 13.7208 2.67838 14.3358 2.89754 14.92C3.09077 15.4181 3.38579 15.8705 3.76374 16.2481C4.14169 16.6258 4.59426 16.9205 5.09254 17.1133C5.67374 17.341 6.28952 17.4678 6.91337 17.4883C7.71588 17.5233 7.97004 17.5342 10.005 17.5342C12.04 17.5342 12.3008 17.5342 13.0967 17.4883C13.7193 17.4757 14.3352 17.3576 14.9183 17.1392C15.4165 16.946 15.8689 16.6511 16.2467 16.2733C16.6244 15.8955 16.9193 15.4431 17.1125 14.945C17.3317 14.3617 17.4492 13.7467 17.4617 13.1233C17.4975 12.3217 17.5083 12.0675 17.5083 10.0317C17.5083 7.99582 17.5083 7.73748 17.4617 6.93998C17.452 6.30854 17.3333 5.68352 17.1108 5.09248ZM16.0958 13.0358C16.0905 13.5161 16.0028 13.9918 15.8367 14.4425C15.7115 14.7665 15.5199 15.0608 15.2742 15.3064C15.0285 15.5519 14.7341 15.7434 14.41 15.8683C13.9644 16.0337 13.4936 16.1214 13.0183 16.1275C12.2267 16.1642 12.0033 16.1733 9.97338 16.1733C7.94171 16.1733 7.73421 16.1733 6.92754 16.1275C6.45248 16.1217 5.98198 16.034 5.53671 15.8683C5.21145 15.7441 4.91588 15.5531 4.66912 15.3075C4.42236 15.0618 4.2299 14.7672 4.10421 14.4425C3.94041 13.9967 3.8528 13.5265 3.84504 13.0517C3.80921 12.26 3.80088 12.0367 3.80088 10.0067C3.80088 7.97582 3.80088 7.76832 3.84504 6.96082C3.85043 6.48084 3.93809 6.00533 4.10421 5.55498C4.35838 4.89748 4.87921 4.37998 5.53671 4.12832C5.9822 3.96343 6.45256 3.87579 6.92754 3.86915C7.72004 3.83332 7.94254 3.82332 9.97338 3.82332C12.0042 3.82332 12.2125 3.82332 13.0183 3.86915C13.4937 3.87487 13.9645 3.96254 14.41 4.12832C14.7341 4.25354 15.0285 4.44515 15.2742 4.69084C15.5198 4.93653 15.7115 5.23088 15.8367 5.55498C16.0005 6.00078 16.0881 6.47095 16.0958 6.94582C16.1317 7.73832 16.1408 7.96082 16.1408 9.99165C16.1408 12.0217 16.1408 12.24 16.105 13.0367H16.0958V13.0358Z" fill="white"/>
</svg>
