<svg width="18" height="12" viewBox="0 0 18 12" fill="none" xmlns="http://www.w3.org/2000/svg">
<path d="M16.9942 2.00247C16.8992 1.6503 16.7138 1.32914 16.4561 1.07094C16.1985 0.812739 15.8778 0.626519 15.5258 0.530799C14.2208 0.172469 9.00003 0.166628 9.00003 0.166628C9.00003 0.166628 3.78003 0.160799 2.4742 0.503299C2.12247 0.603419 1.80238 0.792279 1.54467 1.05174C1.28695 1.31121 1.10027 1.63257 1.00253 1.98497C0.658361 3.28997 0.655031 5.99663 0.655031 5.99663C0.655031 5.99663 0.651701 8.7166 0.993361 10.0083C1.18503 10.7225 1.74753 11.2866 2.46253 11.4791C3.78086 11.8375 8.98753 11.8433 8.98753 11.8433C8.98753 11.8433 14.2083 11.8491 15.5133 11.5075C15.8654 11.4119 16.1865 11.2261 16.4447 10.9684C16.703 10.7108 16.8895 10.3902 16.9858 10.0383C17.3308 8.7341 17.3333 6.0283 17.3333 6.0283C17.3333 6.0283 17.35 3.30747 16.9942 2.00247ZM7.33003 8.5041L7.3342 3.50413L11.6733 6.0083L7.33003 8.5041Z" fill="white"/>
</svg>
